<svg xmlns="http://www.w3.org/2000/svg" width="512" height="512" shape-rendering="geometricPrecision" text-rendering="geometricPrecision" image-rendering="optimizeQuality" fill-rule="evenodd" clip-rule="evenodd"><path fill="#fbc21a" d="M450.5.5c7.193-.653 9.693 2.347 7.5 9A25129.03 25129.03 0 0 1 281.5 201a35122.331 35122.331 0 0 0 179 45c4.908 1.8 6.074 4.967 3.5 9.5A83406.498 83406.498 0 0 0 61.5 509c-8.833 3.167-11.667.333-8.5-8.5 58.868-63.2 117.368-126.7 175.5-190.5a28329.834 28329.834 0 0 0-181-54c-2.035-2.299-2.369-4.799-1-7.5a3153237.215 3153237.215 0 0 0 404-248z" opacity=".985"/></svg>