<svg xmlns="http://www.w3.org/2000/svg" width="512" height="512" shape-rendering="geometricPrecision" text-rendering="geometricPrecision" image-rendering="optimizeQuality" fill-rule="evenodd" clip-rule="evenodd"><path fill="#ffab33" d="M363.5-.5h11c7.425 4.183 10.592 10.517 9.5 19a18173.9 18173.9 0 0 1-82 161 1443.623 1443.623 0 0 0-17.5 31.5l174 1c12.77 6.634 14.77 15.468 6 26.5a109070.957 109070.957 0 0 0-291 252.5 820.642 820.642 0 0 0-26 20.5h-11c-7.633-4.047-10.799-10.38-9.5-19a18172.522 18172.522 0 0 1 82-161 1443.623 1443.623 0 0 0 17.5-31.5l-174-1c-12.77-6.634-14.77-15.468-6-26.5A108125.655 108125.655 0 0 0 336.5 21a890.607 890.607 0 0 0 27-21.5z" opacity=".988"/></svg>